<svg width="102" height="77" viewBox="0 0 102 77" fill="none" xmlns="http://www.w3.org/2000/svg">
<path d="M50.6265 8.77489C39.1931 8.91927 29.8573 14.0598 22.7316 20.6148C16.057 26.7738 11.4835 34.0431 9.1629 39.163C11.6121 44.2226 16.3677 51.3741 23.1781 57.3628C30.4846 63.7356 39.9472 68.6387 51.3806 68.4943C62.814 68.35 72.1499 63.2094 79.2755 56.6544C85.9501 50.4955 90.5236 43.2261 92.8442 38.1063C90.3951 33.0467 85.6395 25.8951 78.829 19.9064C71.5226 13.5337 62.0599 8.63051 50.6265 8.77489ZM16.9222 14.7322C25.0878 7.19692 36.3547 0.810247 50.5237 0.631325C64.6927 0.452403 76.1172 6.55253 84.4705 13.8792C92.7705 21.1557 98.3704 29.8916 101.06 35.9154C101.655 37.2484 101.674 38.7414 101.112 40.089C98.5761 46.1787 93.1987 55.0702 85.0849 62.537C76.9194 70.0723 65.6525 76.459 51.4835 76.6379C37.3145 76.8168 25.8899 70.7167 17.5366 63.39C9.23686 56.1305 3.63671 47.3776 0.964918 41.3536C0.369309 40.0206 0.350456 38.5276 0.912215 37.18C3.43105 31.0905 8.80838 22.199 16.9222 14.7322ZM51.175 52.2072C58.9258 52.1093 65.127 45.9563 65.0323 38.4575C64.9376 30.9586 58.583 24.9641 50.8322 25.062L50.4815 25.0664C50.7203 25.9288 50.8547 26.8434 50.8665 27.7765C50.9421 33.7654 45.9708 38.6982 39.7806 38.7763C38.8161 38.7885 37.8677 38.6817 36.9706 38.4725L36.9748 38.8118C37.0695 46.3106 43.4241 52.3051 51.175 52.2072ZM50.7293 16.9185C56.6824 16.8433 62.4205 19.0591 66.6813 23.0785C70.9422 27.098 73.3768 32.5917 73.4495 38.3512C73.5222 44.1107 71.2272 49.6641 67.0692 53.7898C62.9112 57.9156 57.2308 60.2756 51.2778 60.3508C45.3248 60.426 39.5866 58.2101 35.3258 54.1907C31.0649 50.1713 28.6303 44.6775 28.5576 38.9181C28.4849 33.1586 30.78 27.6051 34.938 23.4794C39.096 19.3537 44.7763 16.9936 50.7293 16.9185Z" fill="black"/>
</svg>
